<svg width="499" height="215" viewBox="0 0 499 215" fill="none" xmlns="http://www.w3.org/2000/svg">
<path d="M168.719 109.04C168.719 131.38 151.141 149.44 129.519 149.44C107.897 149.44 90.3193 131.38 90.3193 109.04C90.3193 86.6998 107.897 68.64 129.519 68.64C151.141 68.64 168.719 86.6998 168.719 109.04Z" fill="#2B2C28" stroke="white" stroke-width="2"/>
<path d="M100.187 149.654L102.697 172.52H110.228L112.738 154.735L100.187 149.654Z" fill="#339989"/>
<path d="M110.227 174.36H102.697C101.788 174.36 101.024 173.658 100.922 172.727L98.4112 149.86C98.3406 149.219 98.6015 148.586 99.0986 148.194C99.5976 147.801 100.259 147.709 100.84 147.941L113.391 153.023C114.163 153.336 114.626 154.154 114.506 155L111.995 172.785C111.867 173.689 111.114 174.36 110.227 174.36ZM104.293 170.68H108.681L110.766 155.914L102.295 152.485L104.293 170.68Z" fill="#2B2C28"/>
<path d="M85.1269 131.603C79.9174 102.096 93.3005 86.4623 102.466 79.4505C106.642 76.2553 112.28 76 116.741 78.7568L118.878 80.0775C121.085 81.4414 121.267 84.6623 119.245 86.3036C113.06 91.3259 107.718 87.6578 107.718 87.6578C107.718 87.6578 91.734 101.767 96.7894 123.257C97.257 125.246 98.2835 127.058 99.6882 128.505C103.112 132.031 108.082 133.449 112.779 132.239L119.95 130.393C126.409 128.73 133.232 128.849 139.523 131.093C146.457 133.568 154.546 138.793 160.43 149.699C172.98 172.964 188.041 167.794 188.041 167.794C188.041 167.794 167.96 175.549 147.879 160.039L138.077 162.562C129.674 164.726 120.823 164.213 112.743 160.999C101.649 156.587 88.0092 147.93 85.1269 131.603Z" fill="#339989"/>
<path d="M175.448 171.612C167.804 171.612 157.708 169.667 147.496 162.033L138.511 164.347C129.655 166.629 120.52 166.064 112.099 162.714C100.669 158.169 86.4066 149.138 83.3688 131.932C77.9338 101.144 92.3325 84.9098 101.4 77.9739C106.163 74.3325 112.545 74.0188 117.66 77.1795L119.796 78.4992C121.331 79.4473 122.315 81.1129 122.429 82.9539C122.544 84.8063 121.767 86.5989 120.351 87.748C115.058 92.0462 110.251 90.8493 108.024 89.8792C104.855 93.0992 94.4082 105.316 98.5256 122.823C98.9075 124.448 99.7467 125.963 100.952 127.204C103.916 130.255 108.283 131.502 112.345 130.453L119.518 128.607C126.548 126.796 133.666 127.056 140.109 129.354C149.469 132.694 156.831 139.238 161.992 148.803C173.596 170.318 186.923 166.227 187.486 166.044C188.407 165.742 189.405 166.247 189.724 167.192C190.041 168.135 189.576 169.165 188.668 169.516C188.245 169.679 183.065 171.612 175.448 171.612V171.612ZM147.879 158.198C148.262 158.198 148.639 158.324 148.951 158.566C158.279 165.771 167.668 167.73 174.835 167.847C169.835 165.351 164.125 160.337 158.868 150.592C154.147 141.841 147.442 135.865 138.939 132.832C133.152 130.768 126.74 130.541 120.385 132.178L113.212 134.024C107.935 135.384 102.273 133.766 98.4255 129.806C96.7559 128.086 95.5892 125.971 95.0536 123.689C89.7999 101.36 105.868 86.8666 106.554 86.2603C107.163 85.724 108.044 85.6711 108.708 86.1265C108.872 86.235 113.104 88.944 118.139 84.8587C118.639 84.4516 118.904 83.8426 118.863 83.1885C118.823 82.5445 118.494 81.9856 117.958 81.6548L115.822 80.3351C111.952 77.9445 107.129 78.1754 103.53 80.928C95.1291 87.3556 81.7948 102.442 86.8841 131.275C89.6253 146.801 102.81 155.075 113.387 159.283C121.114 162.357 129.503 162.873 137.644 160.777L147.445 158.253C147.588 158.216 147.734 158.198 147.879 158.198V158.198Z" fill="#2B2C28"/>
<path d="M132.819 147.113L137.839 172.52H145.369L147.879 154.735" fill="#339989"/>
<path d="M145.369 174.36H137.839C136.989 174.36 136.257 173.744 136.088 172.887L131.068 147.48C130.872 146.484 131.496 145.513 132.463 145.31C133.427 145.104 134.373 145.75 134.57 146.747L139.298 170.68H143.823L146.111 154.471C146.252 153.465 147.16 152.767 148.136 152.914C149.113 153.061 149.789 153.994 149.647 155L147.138 172.785C147.009 173.689 146.256 174.36 145.369 174.36Z" fill="#2B2C28"/>
<path d="M107.718 149.654L110.228 172.52H117.758L120.268 154.735" fill="#339989"/>
<path d="M117.758 174.36H110.227C109.318 174.36 108.554 173.658 108.452 172.727L105.942 149.86C105.831 148.851 106.536 147.939 107.517 147.825C108.491 147.714 109.382 148.437 109.493 149.447L111.824 170.68H116.212L118.5 154.471C118.642 153.464 119.554 152.773 120.526 152.914C121.502 153.061 122.178 153.994 122.037 155L119.526 172.785C119.398 173.689 118.645 174.36 117.758 174.36Z" fill="#2B2C28"/>
<path d="M111.653 82.7533C112.357 82.7533 112.928 82.1653 112.928 81.44C112.928 80.7147 112.357 80.1267 111.653 80.1267C110.948 80.1267 110.377 80.7147 110.377 81.44C110.377 82.1653 110.948 82.7533 111.653 82.7533Z" fill="#2B2C28"/>
<path d="M206.613 141V105.453H217.111C220.253 105.453 223.036 106.153 225.461 107.553C227.902 108.952 229.79 110.938 231.125 113.51C232.46 116.081 233.127 119.027 233.127 122.348V124.13C233.127 127.499 232.451 130.461 231.101 133.017C229.766 135.572 227.854 137.541 225.363 138.925C222.889 140.308 220.049 141 216.843 141H206.613ZM212.79 110.434V136.068H216.818C220.057 136.068 222.539 135.059 224.265 133.041C226.006 131.007 226.893 128.093 226.926 124.301V122.323C226.926 118.466 226.088 115.52 224.411 113.485C222.735 111.451 220.301 110.434 217.111 110.434H212.79ZM250.017 141H244.084V114.584H250.017V141ZM243.718 107.724C243.718 106.812 244.003 106.055 244.572 105.453C245.158 104.851 245.988 104.55 247.062 104.55C248.137 104.55 248.967 104.851 249.553 105.453C250.139 106.055 250.432 106.812 250.432 107.724C250.432 108.619 250.139 109.368 249.553 109.97C248.967 110.556 248.137 110.849 247.062 110.849C245.988 110.849 245.158 110.556 244.572 109.97C244.003 109.368 243.718 108.619 243.718 107.724ZM284.631 128.061C284.631 132.146 283.703 135.409 281.848 137.851C279.992 140.276 277.502 141.488 274.377 141.488C271.48 141.488 269.16 140.536 267.419 138.632V151.156H261.486V114.584H266.955L267.199 117.27C268.941 115.154 271.309 114.096 274.304 114.096C277.526 114.096 280.049 115.3 281.872 117.709C283.711 120.102 284.631 123.43 284.631 127.694V128.061ZM278.723 127.548C278.723 124.911 278.194 122.82 277.136 121.273C276.094 119.727 274.597 118.954 272.644 118.954C270.218 118.954 268.477 119.955 267.419 121.957V133.676C268.493 135.727 270.251 136.752 272.692 136.752C274.58 136.752 276.053 135.995 277.111 134.481C278.186 132.951 278.723 130.64 278.723 127.548ZM300.983 141H295.051V103.5H300.983V141ZM311.354 127.548C311.354 124.96 311.867 122.632 312.893 120.565C313.918 118.482 315.358 116.887 317.214 115.78C319.069 114.657 321.201 114.096 323.61 114.096C327.175 114.096 330.064 115.243 332.277 117.538C334.507 119.833 335.712 122.877 335.891 126.669L335.915 128.061C335.915 130.665 335.41 132.992 334.401 135.043C333.409 137.094 331.976 138.681 330.104 139.804C328.249 140.927 326.101 141.488 323.659 141.488C319.932 141.488 316.945 140.251 314.699 137.777C312.469 135.287 311.354 131.975 311.354 127.841V127.548ZM317.287 128.061C317.287 130.779 317.849 132.911 318.972 134.457C320.095 135.987 321.657 136.752 323.659 136.752C325.661 136.752 327.215 135.971 328.322 134.408C329.445 132.846 330.007 130.559 330.007 127.548C330.007 124.879 329.429 122.763 328.273 121.2C327.134 119.638 325.58 118.856 323.61 118.856C321.674 118.856 320.135 119.63 318.996 121.176C317.857 122.706 317.287 125.001 317.287 128.061ZM346.506 141V105.453H357.004C360.145 105.453 362.928 106.153 365.354 107.553C367.795 108.952 369.683 110.938 371.018 113.51C372.352 116.081 373.02 119.027 373.02 122.348V124.13C373.02 127.499 372.344 130.461 370.993 133.017C369.659 135.572 367.746 137.541 365.256 138.925C362.782 140.308 359.942 141 356.735 141H346.506ZM352.683 110.434V136.068H356.711C359.95 136.068 362.432 135.059 364.157 133.041C365.899 131.007 366.786 128.093 366.818 124.301V122.323C366.818 118.466 365.98 115.52 364.304 113.485C362.627 111.451 360.194 110.434 357.004 110.434H352.683ZM395.231 141.488C391.472 141.488 388.42 140.308 386.076 137.948C383.749 135.572 382.585 132.414 382.585 128.476V127.743C382.585 125.106 383.09 122.755 384.099 120.688C385.124 118.604 386.556 116.985 388.396 115.829C390.235 114.674 392.285 114.096 394.548 114.096C398.145 114.096 400.92 115.243 402.873 117.538C404.842 119.833 405.827 123.08 405.827 127.279V129.672H388.566C388.745 131.853 389.47 133.578 390.739 134.848C392.025 136.117 393.636 136.752 395.573 136.752C398.291 136.752 400.505 135.653 402.214 133.456L405.412 136.508C404.354 138.087 402.938 139.315 401.164 140.194C399.406 141.057 397.429 141.488 395.231 141.488ZM394.523 118.856C392.896 118.856 391.577 119.426 390.568 120.565C389.576 121.705 388.941 123.292 388.664 125.326H399.968V124.887C399.838 122.901 399.309 121.404 398.381 120.395C397.453 119.369 396.167 118.856 394.523 118.856ZM424.426 133.48L430.017 114.584H436.145L426.989 141H421.838L412.609 114.584H418.762L424.426 133.48Z" fill="#339989"/>
</svg>
